<svg xmlns="http://www.w3.org/2000/svg" xmlns:xlink="http://www.w3.org/1999/xlink" width="14" height="14" version="1.1" viewBox="0 0 14 14"><title>Combined Shape</title><desc>Created with Sketch.</desc><g id="Browser---Lukas" fill="none" fill-rule="evenodd" stroke="none" stroke-width="1"><g id="AdBlock-Advanced-UI" fill="#B6B6B6" fill-rule="nonzero" transform="translate(-284.000000, -814.000000)"><path id="Combined-Shape" d="M296,826 L296,821 L298,821 L298,826.5 C298,827.325 297.325,828 296.5,828 L285.5,828 C284.6675,828 284,827.325 284,826.5 L284,815.5 C284,814.675 284.6675,814 285.5,814 L291,814 L291,816 L286,816 L286,826 L296,826 Z M291.920786,814 L298,814 L298,820.079214 L296.015812,820.079214 L296.015812,817.115175 L288.130987,825 L287,823.869013 L294.884825,815.984188 L291.920786,815.984188 L291.920786,814 Z"/></g></g></svg>