<svg xmlns="http://www.w3.org/2000/svg" xmlns:xlink="http://www.w3.org/1999/xlink" id="Layer_1" width="50" height="50" x="0" style="enable-background:new 0 0 50 50" y="0" version="1.1" viewBox="0 0 50 50" xml:space="preserve"><metadata><?xpacket begin="﻿" id="W5M0MpCehiHzreSzNTczkc9d"?><?xpacket end="w"?></metadata><g><path style="fill-rule:evenodd;clip-rule:evenodd;fill:#242424" d="M6.99,18.33c0-0.57,0.18-1.03,0.55-1.4l9.4-9.4 c0.37-0.37,0.83-0.55,1.4-0.55h13.25c0.57,0,1.03,0.18,1.4,0.55l9.4,9.4c0.4,0.4,0.6,0.87,0.6,1.4v13.25c0,0.53-0.2,1-0.6,1.4 l-9.4,9.4c-0.4,0.4-0.87,0.6-1.4,0.6H18.34c-0.53,0-1-0.2-1.4-0.6l-9.4-9.4c-0.37-0.37-0.55-0.83-0.55-1.4V18.33z M7.99,31.58 c0,0.23,0.08,0.47,0.25,0.7l9.4,9.4c0.27,0.2,0.5,0.3,0.7,0.3h13.25c0.2,0,0.43-0.1,0.7-0.3l9.4-9.4c0.2-0.27,0.3-0.5,0.3-0.7 V18.33c0-0.2-0.1-0.43-0.3-0.7l-9.4-9.4c-0.23-0.17-0.47-0.25-0.7-0.25H18.34c-0.23,0-0.47,0.08-0.7,0.25l-9.4,9.4 c-0.17,0.23-0.25,0.47-0.25,0.7V31.58z M21.09,21.44l-1.7,4.5h3.4L21.09,21.44z M21.64,19.98l3.55,9h-1.25l-0.75-2.05h-4.15 l-0.8,2.05h-1.25l3.55-9H21.64z M27.09,20.98v7h1.45c0.97,0,1.7-0.28,2.2-0.85c0.53-0.53,0.8-1.35,0.8-2.45v-0.5 c0-1-0.25-1.8-0.75-2.4c-0.5-0.53-1.2-0.8-2.1-0.8H27.09z M28.64,19.98c0.87,0,1.58,0.17,2.15,0.5c0.6,0.33,1.08,0.82,1.45,1.45 c0.3,0.57,0.48,1.3,0.55,2.2v0.6c0,0.83-0.18,1.58-0.55,2.25c-0.37,0.67-0.85,1.15-1.45,1.45c-0.6,0.3-1.33,0.48-2.2,0.55h-2.6v-9 H28.64z"/></g></svg>